<svg width="56" height="56" viewBox="0 0 56 56" fill="none" xmlns="http://www.w3.org/2000/svg">
<g clip-path="url(#clip0_1027_174369)">
<path d="M35.7745 12.4497V4.67188H12.4412C10.7223 4.67188 9.33008 6.0641 9.33008 7.78299V48.2274C9.33008 49.9463 10.7223 51.3385 12.4412 51.3385H43.5523C45.2712 51.3385 46.6634 49.9463 46.6634 48.2274V15.5608H38.8856C37.1667 15.5608 35.7745 14.1685 35.7745 12.4497Z" fill="#EFEFEF"/>
<path d="M41.9966 9.33854L38.24 5.58187C37.6566 4.99854 36.8633 4.67188 36.0389 4.67188H35.7744V12.4497C35.7744 14.1685 37.1666 15.5608 38.8855 15.5608H46.6633V15.2963C46.6633 14.4719 46.3366 13.6785 45.7533 13.0952L41.9966 9.33854Z" fill="#DBDBDB"/>
<rect x="13.9971" y="18.6719" width="18.6667" height="4.66667" rx="0.777778" fill="#DBDBDB"/>
<rect x="13.9971" y="29.5586" width="28" height="4.66667" rx="0.777778" fill="#DBDBDB"/>
<rect x="13.9971" y="37.3359" width="28" height="4.66667" rx="0.777778" fill="#DBDBDB"/>
</g>
<defs>
<clipPath id="clip0_1027_174369">
<rect width="37.3333" height="46.6667" fill="white" transform="translate(9.33301 4.66797)"/>
</clipPath>
</defs>
</svg>
