<svg width="12" height="10" viewBox="0 0 12 10" fill="none" xmlns="http://www.w3.org/2000/svg">
<g clip-path="url(#clip0_282_152702)">
<mask id="path-1-inside-1_282_152702" fill="white">
<path fill-rule="evenodd" clip-rule="evenodd" d="M6.86603 0.500004C6.48114 -0.166668 5.51886 -0.166668 5.13397 0.500004L0.226532 9H-330C-336.627 9 -342 14.3726 -342 21V251C-342 257.627 -336.627 263 -330 263H26C32.6274 263 38 257.627 38 251V21C38 14.3726 32.6274 9 26 9H11.7735L6.86603 0.500004Z"/>
</mask>
<path fill-rule="evenodd" clip-rule="evenodd" d="M6.86603 0.500004C6.48114 -0.166668 5.51886 -0.166668 5.13397 0.500004L0.226532 9H-330C-336.627 9 -342 14.3726 -342 21V251C-342 257.627 -336.627 263 -330 263H26C32.6274 263 38 257.627 38 251V21C38 14.3726 32.6274 9 26 9H11.7735L6.86603 0.500004Z" fill="white"/>
<path d="M5.13397 0.500004L6 1L6.00001 0.999989L5.13397 0.500004ZM6.86603 0.500004L5.99999 0.999988L6 1L6.86603 0.500004ZM0.226532 9V10H0.803884L1.09256 9.5L0.226532 9ZM11.7735 9L10.9074 9.5L11.1961 10H11.7735V9ZM6.00001 0.999989L5.99999 0.999988L7.73206 1.86582e-05C6.96228 -1.33334 5.03772 -1.33334 4.26794 1.95523e-05L6.00001 0.999989ZM1.09256 9.5L6 1L4.26795 7.05132e-06L-0.639495 8.5L1.09256 9.5ZM-330 10H0.226532V8H-330V10ZM-341 21C-341 14.9249 -336.075 10 -330 10V8C-337.18 8 -343 13.8203 -343 21H-341ZM-341 251V21H-343V251H-341ZM-330 262C-336.075 262 -341 257.075 -341 251H-343C-343 258.18 -337.18 264 -330 264V262ZM26 262H-330V264H26V262ZM37 251C37 257.075 32.0751 262 26 262V264C33.1797 264 39 258.18 39 251H37ZM37 21V251H39V21H37ZM26 10C32.0751 10 37 14.9249 37 21H39C39 13.8203 33.1797 8 26 8V10ZM11.7735 10H26V8H11.7735V10ZM6 1L10.9074 9.5L12.6395 8.5L7.73205 6.19669e-06L6 1Z" fill="#DBDBDB" mask="url(#path-1-inside-1_282_152702)"/>
</g>
<defs>
<clipPath id="clip0_282_152702">
<rect width="12" height="10" fill="white"/>
</clipPath>
</defs>
</svg>
