<svg width="200" height="200" viewBox="0 0 200 200" fill="none" xmlns="http://www.w3.org/2000/svg">
<path d="M2 40C2 37.7909 3.79086 36 6 36H18C20.2091 36 22 37.7909 22 40V52C22 54.2091 20.2091 56 18 56H6C3.79086 56 2 54.2091 2 52V40Z" fill="white"/>
<path fill-rule="evenodd" clip-rule="evenodd" d="M18 37.5H6C4.61929 37.5 3.5 38.6193 3.5 40V52C3.5 53.3807 4.61929 54.5 6 54.5H18C19.3807 54.5 20.5 53.3807 20.5 52V40C20.5 38.6193 19.3807 37.5 18 37.5ZM6 36C3.79086 36 2 37.7909 2 40V52C2 54.2091 3.79086 56 6 56H18C20.2091 56 22 54.2091 22 52V40C22 37.7909 20.2091 36 18 36H6Z" fill="#C4C4C4"/>
<rect x="36" y="36" width="20" height="20" rx="4" fill="#0D349B"/>
<g clip-path="url(#clip0_426_212700)">
<path d="M44.6665 48.113L50.7945 41.9844L51.7378 42.927L44.6665 49.9984L40.4238 45.7557L41.3665 44.813L44.6665 48.113Z" fill="white"/>
</g>
<rect x="70" y="36" width="20" height="20" rx="4" fill="#A6A6A6"/>
<g clip-path="url(#clip1_426_212700)">
<path d="M78.6665 48.113L84.7945 41.9844L85.7378 42.927L78.6665 49.9984L74.4238 45.7557L75.3665 44.813L78.6665 48.113Z" fill="white"/>
</g>
<path d="M1.33325 98.0026C1.33325 96.5298 2.52716 95.3359 3.99992 95.3359H11.9999C13.4727 95.3359 14.6666 96.5298 14.6666 98.0026V106.003C14.6666 107.475 13.4727 108.669 11.9999 108.669H3.99992C2.52716 108.669 1.33325 107.475 1.33325 106.003V98.0026Z" fill="white"/>
<path fill-rule="evenodd" clip-rule="evenodd" d="M11.9999 96.3359H3.99992C3.07944 96.3359 2.33325 97.0821 2.33325 98.0026V106.003C2.33325 106.923 3.07944 107.669 3.99992 107.669H11.9999C12.9204 107.669 13.6666 106.923 13.6666 106.003V98.0026C13.6666 97.0821 12.9204 96.3359 11.9999 96.3359ZM3.99992 95.3359C2.52716 95.3359 1.33325 96.5298 1.33325 98.0026V106.003C1.33325 107.475 2.52716 108.669 3.99992 108.669H11.9999C13.4727 108.669 14.6666 107.475 14.6666 106.003V98.0026C14.6666 96.5298 13.4727 95.3359 11.9999 95.3359H3.99992Z" fill="#C4C4C4"/>
<rect x="27.3333" y="95.3359" width="13.3333" height="13.3333" rx="2.66667" fill="#0D349B"/>
<g clip-path="url(#clip2_426_212700)">
<path d="M33.1109 103.414L37.1962 99.3281L37.8251 99.9566L33.1109 104.671L30.2825 101.842L30.9109 101.214L33.1109 103.414Z" fill="white"/>
</g>
<rect x="53.3333" y="95.3359" width="13.3333" height="13.3333" rx="2.66667" fill="#A6A6A6"/>
<g clip-path="url(#clip3_426_212700)">
<path d="M59.1109 103.414L63.1962 99.3281L63.8251 99.9566L59.1109 104.671L56.2825 101.842L56.9109 101.214L59.1109 103.414Z" fill="white"/>
</g>
<path d="M22 12C22 17.5228 17.5228 22 12 22C6.47715 22 2 17.5228 2 12C2 6.47715 6.47715 2 12 2C17.5228 2 22 6.47715 22 12Z" fill="white"/>
<path fill-rule="evenodd" clip-rule="evenodd" d="M12 20.5C16.6944 20.5 20.5 16.6944 20.5 12C20.5 7.30558 16.6944 3.5 12 3.5C7.30558 3.5 3.5 7.30558 3.5 12C3.5 16.6944 7.30558 20.5 12 20.5ZM12 22C17.5228 22 22 17.5228 22 12C22 6.47715 17.5228 2 12 2C6.47715 2 2 6.47715 2 12C2 17.5228 6.47715 22 12 22Z" fill="#C4C4C4"/>
<circle cx="46" cy="12" r="10" fill="#0D349B"/>
<circle cx="46" cy="12" r="5" fill="white"/>
<circle cx="80" cy="12" r="10" fill="#A6A6A6"/>
<circle cx="80" cy="12" r="5" fill="white"/>
<path d="M14.6666 76.0026C14.6666 79.6845 11.6818 82.6693 7.99992 82.6693C4.31802 82.6693 1.33325 79.6845 1.33325 76.0026C1.33325 72.3207 4.31802 69.3359 7.99992 69.3359C11.6818 69.3359 14.6666 72.3207 14.6666 76.0026Z" fill="white"/>
<path fill-rule="evenodd" clip-rule="evenodd" d="M7.99992 81.6693C11.1295 81.6693 13.6666 79.1322 13.6666 76.0026C13.6666 72.873 11.1295 70.3359 7.99992 70.3359C4.8703 70.3359 2.33325 72.873 2.33325 76.0026C2.33325 79.1322 4.8703 81.6693 7.99992 81.6693ZM7.99992 82.6693C11.6818 82.6693 14.6666 79.6845 14.6666 76.0026C14.6666 72.3207 11.6818 69.3359 7.99992 69.3359C4.31802 69.3359 1.33325 72.3207 1.33325 76.0026C1.33325 79.6845 4.31802 82.6693 7.99992 82.6693Z" fill="#C4C4C4"/>
<circle cx="33.9999" cy="76.0026" r="6.66667" fill="#0D349B"/>
<circle cx="34.0001" cy="75.9974" r="3.33333" fill="white"/>
<circle cx="59.9999" cy="76.0026" r="6.66667" fill="#A6A6A6"/>
<circle cx="60.0001" cy="75.9974" r="3.33333" fill="white"/>
<defs>
<clipPath id="clip0_426_212700">
<rect width="16" height="16" fill="white" transform="translate(38 38)"/>
</clipPath>
<clipPath id="clip1_426_212700">
<rect width="16" height="16" fill="white" transform="translate(72 38)"/>
</clipPath>
<clipPath id="clip2_426_212700">
<rect width="10.6667" height="10.6667" fill="white" transform="translate(28.6667 96.6641)"/>
</clipPath>
<clipPath id="clip3_426_212700">
<rect width="10.6667" height="10.6667" fill="white" transform="translate(54.6667 96.6641)"/>
</clipPath>
</defs>
</svg>
