<svg xmlns="http://www.w3.org/2000/svg" class="sprite-icon"><symbol id="check" viewBox="0 0 24 24"><g clip-path="url(#a)"><path fill="currentColor" d="M10 15.17l9.192-9.193 1.415 1.414L10 17.998l-6.364-6.364L5.05 10.22 10 15.17z"/></g><defs><clipPath id="a"><path fill="currentColor" d="M0 0h24v24H0z"/></clipPath></defs></symbol><symbol id="checkbox-multiple" viewBox="0 0 24 24"><g clip-path="url(#a)"><path fill="currentColor" d="M7 7V3a1 1 0 0 1 1-1h13a1 1 0 0 1 1 1v13a1 1 0 0 1-1 1h-4v3.993c0 .556-.449 1.007-1.007 1.007H3.007A1.006 1.006 0 0 1 2 20.993l.003-12.986C2.003 7.451 2.452 7 3.01 7H7zm2 0h6.993C16.549 7 17 7.449 17 8.007V15h3V4H9v3zM4.003 9L4 20h11V9H4.003z"/></g><defs><clipPath id="a"><path fill="currentColor" d="M0 0h24v24H0z"/></clipPath></defs></symbol><symbol id="close" viewBox="0 0 24 24"><g clip-path="url(#a)"><path fill="currentColor" d="M12 10.583l4.95-4.95 1.414 1.414-4.95 4.95 4.95 4.95-1.414 1.414L12 13.41l-4.95 4.95-1.414-1.414 4.95-4.95-4.95-4.95L7.05 5.633l4.95 4.95z"/></g><defs><clipPath id="a"><path fill="currentColor" d="M0 0h24v24H0z"/></clipPath></defs></symbol><symbol id="check-circle" viewBox="0 0 24 24"><g clip-path="url(#a)"><path fill="currentColor" d="M12 22C6.477 22 2 17.523 2 12S6.477 2 12 2s10 4.477 10 10-4.477 10-10 10zm0-2a8 8 0 1 0 0-16.001A8 8 0 0 0 12 20zm-.997-4L6.76 11.757l1.414-1.414 2.829 2.829 5.656-5.657 1.415 1.414L11.003 16z"/></g><defs><clipPath id="a"><path fill="currentColor" d="M0 0h24v24H0z"/></clipPath></defs></symbol><symbol id="contacts-book" viewBox="0 0 24 24"><g clip-path="url(#a)"><path fill="currentColor" d="M20 22H6a3 3 0 0 1-3-3V5a3 3 0 0 1 3-3h14a1 1 0 0 1 1 1v18a1 1 0 0 1-1 1zm-1-2v-2H6a1 1 0 0 0 0 2h13zM5 16.17c.313-.11.65-.17 1-.17h13V4H6a1 1 0 0 0-1 1v11.17zM12 10a2 2 0 1 1 0-4 2 2 0 0 1 0 4zm-3 4a3 3 0 0 1 6 0H9z"/></g><defs><clipPath id="a"><path fill="currentColor" d="M0 0h24v24H0z"/></clipPath></defs></symbol><symbol id="delete-bin" viewBox="0 0 24 24"><g clip-path="url(#a)"><path fill="currentColor" d="M7 4V2h10v2h5v2h-2v15a1 1 0 0 1-1 1H5a1 1 0 0 1-1-1V6H2V4h5zM6 6v14h12V6H6zm3 3h2v8H9V9zm4 0h2v8h-2V9z"/></g><defs><clipPath id="a"><path fill="currentColor" d="M0 0h24v24H0z"/></clipPath></defs></symbol><symbol id="cloudy" viewBox="0 0 24 24"><g clip-path="url(#a)"><path fill="currentColor" d="M17 21.003H7a6 6 0 0 1-1.992-11.66 7 7 0 1 1 13.984 0A6 6 0 0 1 17 21.002zm-10-2h10a4.002 4.002 0 0 0 3.579-5.772 4.001 4.001 0 0 0-4.005-2.206 5 5 0 1 0-9.148 0A4 4 0 1 0 7 19.003z"/></g><defs><clipPath id="a"><path fill="currentColor" d="M0 0h24v24H0z"/></clipPath></defs></symbol><symbol id="close-circle" viewBox="0 0 24 24"><g clip-path="url(#a)"><path fill="currentColor" d="M12 22C6.477 22 2 17.523 2 12S6.477 2 12 2s10 4.477 10 10-4.477 10-10 10zm0-2a8 8 0 1 0 0-16.001A8 8 0 0 0 12 20zm0-9.414l2.828-2.829 1.415 1.415L13.414 12l2.829 2.828-1.415 1.415L12 13.414l-2.828 2.829-1.415-1.415L10.586 12 7.757 9.172l1.415-1.415L12 10.586z"/></g><defs><clipPath id="a"><path fill="currentColor" d="M0 0h24v24H0z"/></clipPath></defs></symbol><symbol id="computer" viewBox="0 0 24 24"><g clip-path="url(#a)"><path fill="currentColor" d="M4 16h16V5H4v11zm9 2v2h4v2H7v-2h4v-2H2.992A1 1 0 0 1 2 16.993V4.007C2 3.451 2.455 3 2.992 3h18.016c.548 0 .992.449.992 1.007v12.986c0 .556-.455 1.007-.992 1.007H13z"/></g><defs><clipPath id="a"><path fill="currentColor" d="M0 0h24v24H0z"/></clipPath></defs></symbol><symbol id="community" viewBox="0 0 24 24"><g clip-path="url(#a)"><path fill="currentColor" d="M12 11a5 5 0 0 1 5 5v6h-2v-6a3 3 0 0 0-2.824-2.995L12 13a3 3 0 0 0-2.995 2.824L9 16v6H7v-6a5 5 0 0 1 5-5zm-6.5 3c.279 0 .55.033.81.094a5.947 5.947 0 0 0-.301 1.575L6 16v.086a1.494 1.494 0 0 0-.356-.08L5.5 16a1.5 1.5 0 0 0-1.493 1.356L4 17.5V22H2v-4.5A3.5 3.5 0 0 1 5.5 14zm13 0a3.5 3.5 0 0 1 3.5 3.5V22h-2v-4.5a1.5 1.5 0 0 0-1.356-1.493L18.5 16c-.175 0-.343.03-.5.085V16c0-.666-.108-1.306-.309-1.904A3.42 3.42 0 0 1 18.5 14zm-13-6a2.5 2.5 0 1 1 0 5 2.5 2.5 0 0 1 0-5zm13 0a2.5 2.5 0 1 1 0 5 2.5 2.5 0 0 1 0-5zm-13 2a.5.5 0 1 0 0 1 .5.5 0 0 0 0-1zm13 0a.5.5 0 1 0 0 1 .5.5 0 0 0 0-1zM12 2a4 4 0 1 1 0 8 4 4 0 0 1 0-8zm0 2a2 2 0 1 0 0 4 2 2 0 0 0 0-4z"/></g><defs><clipPath id="a"><path fill="currentColor" d="M0 0h24v24H0z"/></clipPath></defs></symbol><symbol id="document" viewBox="0 0 24 24"><g clip-path="url(#a)"><path fill="currentColor" d="M21 8v12.993A1 1 0 0 1 20.007 22H3.993A.993.993 0 0 1 3 21.008V2.992C3 2.455 3.449 2 4.002 2h10.995L21 8zm-2 1h-5V4H5v16h14V9zM8 7h3v2H8V7zm0 4h8v2H8v-2zm0 4h8v2H8v-2z"/></g><defs><clipPath id="a"><path fill="currentColor" d="M0 0h24v24H0z"/></clipPath></defs></symbol><symbol id="error-warning-circle" viewBox="0 0 24 24"><g clip-path="url(#a)"><path fill="currentColor" d="M12 22C6.477 22 2 17.523 2 12S6.477 2 12 2s10 4.477 10 10-4.477 10-10 10zm0-2a8 8 0 1 0 0-16.001A8 8 0 0 0 12 20zm-1-5h2v2h-2v-2zm0-8h2v6h-2V7z"/></g><defs><clipPath id="a"><path fill="currentColor" d="M0 0h24v24H0z"/></clipPath></defs></symbol><symbol id="e-approval" viewBox="0 0 24 24"><g clip-path="url(#a)"><path fill="currentColor" d="M17 2v2h3.007c.548 0 .993.445.993.993v16.014a.994.994 0 0 1-.993.993H3.993A.994.994 0 0 1 3 21.007V4.993C3 4.445 3.445 4 3.993 4H7V2h10zM7 6H5v14h14V6h-2v2H7V6zm2 10v2H7v-2h2zm0-3v2H7v-2h2zm0-3v2H7v-2h2zm6-6H9v2h6V4z"/></g><defs><clipPath id="a"><path fill="currentColor" d="M0 0h24v24H0z"/></clipPath></defs></symbol><symbol id="download" viewBox="0 0 24 24"><g clip-path="url(#a)"><path fill="currentColor" d="M13 10h5l-6 6-6-6h5V3h2v7zm-9 9h16v-7h2v8a1 1 0 0 1-1 1H3a1 1 0 0 1-1-1v-8h2v7z"/></g><defs><clipPath id="a"><path fill="currentColor" d="M0 0h24v24H0z"/></clipPath></defs></symbol><symbol id="folder2" viewBox="0 0 24 24"><g clip-path="url(#a)"><path fill="currentColor" d="M4 5v14h16V7h-8.414l-2-2H4zm8.414 0H21a1 1 0 0 1 1 1v14a1 1 0 0 1-1 1H3a1 1 0 0 1-1-1V4a1 1 0 0 1 1-1h7.414l2 2z"/></g><defs><clipPath id="a"><path fill="currentColor" d="M0 0h24v24H0z"/></clipPath></defs></symbol><symbol id="layout-column" viewBox="0 0 24 24"><g clip-path="url(#a)"><path fill="currentColor" d="M11 5H5v14h6V5zm2 0v14h6V5h-6zM4 3h16a1 1 0 0 1 1 1v16a1 1 0 0 1-1 1H4a1 1 0 0 1-1-1V4a1 1 0 0 1 1-1z"/></g><defs><clipPath id="a"><path fill="currentColor" d="M0 0h24v24H0z"/></clipPath></defs></symbol><symbol id="folder" viewBox="0 0 24 24"><g clip-path="url(#a)"><path fill="currentColor" d="M12.414 5H21a1 1 0 0 1 1 1v14a1 1 0 0 1-1 1H3a1 1 0 0 1-1-1V4a1 1 0 0 1 1-1h7.414l2 2zM20 11H4v8h16v-8zm0-2V7h-8.414l-2-2H4v4h16z"/></g><defs><clipPath id="a"><path fill="currentColor" d="M0 0h24v24H0z"/></clipPath></defs></symbol><symbol id="info-circle" viewBox="0 0 24 24"><g clip-path="url(#a)"><path fill="currentColor" d="M12 22C6.477 22 2 17.523 2 12S6.477 2 12 2s10 4.477 10 10-4.477 10-10 10zm0-2a8 8 0 1 0 0-16.001A8 8 0 0 0 12 20zM11 7h2v2h-2V7zm0 4h2v6h-2v-6z"/></g><defs><clipPath id="a"><path fill="currentColor" d="M0 0h24v24H0z"/></clipPath></defs></symbol><symbol id="graduation-cap" viewBox="0 0 24 24"><g clip-path="url(#a)"><path fill="currentColor" d="M4 11.333L0 9l12-7 12 7v8.5h-2v-7.333l-2 1.166v6.678l-.223.275A9.983 9.983 0 0 1 12 22a9.983 9.983 0 0 1-7.777-3.714L4 18.011v-6.678zM6 12.5v4.792A7.979 7.979 0 0 0 12 20a7.978 7.978 0 0 0 6-2.708V12.5L12 16l-6-3.5zM3.97 9L12 13.685 20.03 9 12 4.315 3.97 9z"/></g><defs><clipPath id="a"><path fill="currentColor" d="M0 0h24v24H0z"/></clipPath></defs></symbol><symbol id="layout-one" viewBox="0 0 24 24"><g clip-path="url(#a)"><path fill="currentColor" d="M4 3h16a1 1 0 0 1 1 1v16a1 1 0 0 1-1 1H4a1 1 0 0 1-1-1V4a1 1 0 0 1 1-1zm1 2v14h14V5H5z"/></g><defs><clipPath id="a"><path fill="currentColor" d="M0 0h24v24H0z"/></clipPath></defs></symbol><symbol id="link" viewBox="0 0 24 24"><g clip-path="url(#a)"><path fill="currentColor" d="M18.364 15.536L16.95 14.12l1.414-1.414a4.999 4.999 0 0 0-3.53-8.55 5 5 0 0 0-3.54 1.48L9.878 7.05 8.464 5.636 9.88 4.222a7 7 0 0 1 9.9 9.9l-1.415 1.414zm-2.828 2.828l-1.415 1.414a7 7 0 1 1-9.9-9.9l1.415-1.414L7.05 9.88l-1.414 1.414a5 5 0 1 0 7.071 7.071l1.414-1.414 1.415 1.414zm-.708-10.607l1.415 1.415-7.07 7.07-1.416-1.414 7.071-7.07z"/></g><defs><clipPath id="a"><path fill="currentColor" d="M0 0h24v24H0z"/></clipPath></defs></symbol><symbol id="layout-column-fill" viewBox="0 0 24 24"><g clip-path="url(#a)"><path fill="currentColor" d="M12 5v14h7V5h-7zM4 3h16a1 1 0 0 1 1 1v16a1 1 0 0 1-1 1H4a1 1 0 0 1-1-1V4a1 1 0 0 1 1-1z"/></g><defs><clipPath id="a"><path fill="currentColor" d="M0 0h24v24H0z"/></clipPath></defs></symbol><symbol id="layout-one-fill" viewBox="0 0 24 24"><g clip-path="url(#a)"><path fill="currentColor" d="M4 3h16a1 1 0 0 1 1 1v16a1 1 0 0 1-1 1H4a1 1 0 0 1-1-1V4a1 1 0 0 1 1-1z"/></g><defs><clipPath id="a"><path fill="currentColor" d="M0 0h24v24H0z"/></clipPath></defs></symbol><symbol id="mail" viewBox="0 0 24 24"><g clip-path="url(#a)"><path fill="currentColor" d="M3 3h18a1 1 0 0 1 1 1v16a1 1 0 0 1-1 1H3a1 1 0 0 1-1-1V4a1 1 0 0 1 1-1zm17 4.238l-7.928 7.1L4 7.216V19h16V7.238zM4.511 5l7.55 6.662L19.502 5H4.511z"/></g><defs><clipPath id="a"><path fill="currentColor" d="M0 0h24v24H0z"/></clipPath></defs></symbol><symbol id="mac" viewBox="0 0 24 24"><g clip-path="url(#a)"><path fill="currentColor" d="M14 18v2l2 1v1H8l-.004-.996L10 20v-2H2.992A1 1 0 0 1 2 16.993V4.007C2 3.451 2.455 3 2.992 3h18.016c.548 0 .992.449.992 1.007v12.986c0 .556-.455 1.007-.992 1.007H14zM4 5v9h16V5H4z"/></g><defs><clipPath id="a"><path fill="currentColor" d="M0 0h24v24H0z"/></clipPath></defs></symbol><symbol id="mail-fill" viewBox="0 0 24 24"><g clip-path="url(#a)"><path fill="currentColor" d="M3 3h18a1 1 0 0 1 1 1v16a1 1 0 0 1-1 1H3a1 1 0 0 1-1-1V4a1 1 0 0 1 1-1zm9.06 8.683L5.648 6.238 4.353 7.762l7.72 6.555 7.581-6.56-1.308-1.513-6.285 5.439h-.001z"/></g><defs><clipPath id="a"><path fill="currentColor" d="M0 0h24v24H0z"/></clipPath></defs></symbol><symbol id="mail-open" viewBox="0 0 24 24"><g clip-path="url(#a)"><path fill="currentColor" d="M2.243 6.85l9.247-5.543a1 1 0 0 1 1.029 0l9.238 5.545A.5.5 0 0 1 22 7.28v12.716a1 1 0 0 1-1 1H3a1 1 0 0 1-1-1V7.28a.5.5 0 0 1 .243-.43zM4 8.13v10.867h16V8.129l-7.996-4.8L4 8.129zm8.06 5.565l5.296-4.463 1.288 1.53-6.57 5.537-6.71-5.53 1.272-1.544 5.424 4.47z"/></g><defs><clipPath id="a"><path fill="currentColor" d="M0 0h24v24H0z"/></clipPath></defs></symbol><symbol id="map-pin" viewBox="0 0 24 24"><g clip-path="url(#a)"><path fill="currentColor" d="M12 20.9l4.95-4.95a7 7 0 1 0-9.9 0L12 20.9zm0 2.828l-6.364-6.364a9 9 0 1 1 12.728 0L12 23.728zM12 13a2 2 0 1 0 0-4 2 2 0 0 0 0 4zm0 2a4 4 0 1 1 0-8 4 4 0 0 1 0 8z"/></g><defs><clipPath id="a"><path fill="currentColor" d="M0 0h24v24H0z"/></clipPath></defs></symbol><symbol id="mail-open-fill" viewBox="0 0 24 24"><g clip-path="url(#a)"><path fill="currentColor" d="M2.243 6.85l9.247-5.543a1 1 0 0 1 1.029 0l9.238 5.545A.5.5 0 0 1 22 7.28v12.716a1 1 0 0 1-1 1H3a1 1 0 0 1-1-1V7.28a.5.5 0 0 1 .243-.43zm16.103 1.39l-6.285 5.44-6.414-5.445-1.294 1.524 7.72 6.555 7.581-6.56-1.308-1.513z"/></g><defs><clipPath id="a"><path fill="currentColor" d="M0 0h24v24H0z"/></clipPath></defs></symbol><symbol id="map-pin-add" viewBox="0 0 24 24"><g clip-path="url(#a)"><path fill="currentColor" d="M12 20.9l4.95-4.95a7 7 0 1 0-9.9 0L12 20.9zm0 2.828l-6.364-6.364a9 9 0 1 1 12.728 0L12 23.728zM11 10V7h2v3h3v2h-3v3h-2v-3H8v-2h3z"/></g><defs><clipPath id="a"><path fill="currentColor" d="M0 0h24v24H0z"/></clipPath></defs></symbol><symbol id="map-pin-user" viewBox="0 0 24 24"><g clip-path="url(#a)"><path fill="currentColor" d="M17.084 15.812a7 7 0 1 0-10.168 0A5.997 5.997 0 0 1 12 13a5.996 5.996 0 0 1 5.084 2.812zm-8.699 1.473L12 20.899l3.615-3.614a4 4 0 0 0-7.23 0zM12 23.728l-6.364-6.364a9 9 0 1 1 12.728 0L12 23.728zM12 10a1 1 0 1 0 0-2 1 1 0 0 0 0 2zm0 2a3 3 0 1 1 0-6 3 3 0 0 1 0 6z"/></g><defs><clipPath id="a"><path fill="currentColor" d="M0 0h24v24H0z"/></clipPath></defs></symbol><symbol id="menu-all" viewBox="0 0 24 24"><g clip-path="url(#a)"><path fill="currentColor" d="M3 3h8v8H3V3zm0 10h8v8H3v-8zM13 3h8v8h-8V3zm0 10h8v8h-8v-8zm2-8v4h4V5h-4zm0 10v4h4v-4h-4zM5 5v4h4V5H5zm0 10v4h4v-4H5z"/></g><defs><clipPath id="a"><path fill="currentColor" d="M0 0h24v24H0z"/></clipPath></defs></symbol><symbol id="menu" viewBox="0 0 24 24"><g clip-path="url(#a)"><path fill="currentColor" d="M3 4h18v2H3V4zm0 7h18v2H3v-2zm0 7h18v2H3v-2z"/></g><defs><clipPath id="a"><path fill="currentColor" d="M0 0h24v24H0z"/></clipPath></defs></symbol><symbol id="more2" viewBox="0 0 24 24"><g clip-path="url(#a)"><path fill="currentColor" d="M12 3c-.825 0-1.5.675-1.5 1.5S11.175 6 12 6s1.5-.675 1.5-1.5S12.825 3 12 3zm0 15c-.825 0-1.5.675-1.5 1.5S11.175 21 12 21s1.5-.675 1.5-1.5S12.825 18 12 18zm0-7.5c-.825 0-1.5.675-1.5 1.5s.675 1.5 1.5 1.5 1.5-.675 1.5-1.5-.675-1.5-1.5-1.5z"/></g><defs><clipPath id="a"><path fill="currentColor" d="M0 0h24v24H0z"/></clipPath></defs></symbol><symbol id="notebook" viewBox="0 0 24 24"><g clip-path="url(#a)"><path fill="currentColor" d="M4 5v11h16V5H4zm-2-.993C2 3.451 2.455 3 2.992 3h18.016c.548 0 .992.449.992 1.007V18H2V4.007zM1 19h22v2H1v-2z"/></g><defs><clipPath id="a"><path fill="currentColor" d="M0 0h24v24H0z"/></clipPath></defs></symbol><symbol id="more" viewBox="0 0 24 24"><g clip-path="url(#a)"><path fill="currentColor" d="M4.5 10.5c-.825 0-1.5.675-1.5 1.5s.675 1.5 1.5 1.5S6 12.825 6 12s-.675-1.5-1.5-1.5zm15 0c-.825 0-1.5.675-1.5 1.5s.675 1.5 1.5 1.5S21 12.825 21 12s-.675-1.5-1.5-1.5zm-7.5 0c-.825 0-1.5.675-1.5 1.5s.675 1.5 1.5 1.5 1.5-.675 1.5-1.5-.675-1.5-1.5-1.5z"/></g><defs><clipPath id="a"><path fill="currentColor" d="M0 0h24v24H0z"/></clipPath></defs></symbol><symbol id="note" viewBox="0 0 24 24"><g clip-path="url(#a)"><path fill="currentColor" d="M21 15l-6 5.996L4.002 21A.998.998 0 0 1 3 20.007V3.993C3 3.445 3.445 3 3.993 3h16.014c.548 0 .993.456.993 1.002V15zM19 5H5v14h8v-5a1 1 0 0 1 .883-.993L14 13l5-.001V5zm-.829 9.999L15 15v3.169l3.171-3.17z"/></g><defs><clipPath id="a"><path fill="currentColor" d="M0 0h24v24H0z"/></clipPath></defs></symbol><symbol id="pencil" viewBox="0 0 24 24"><g clip-path="url(#a)"><path fill="currentColor" d="M15.728 9.688l-1.414-1.414L5 17.588v1.414h1.414l9.314-9.314zm1.414-1.414l1.414-1.414-1.414-1.414-1.414 1.414 1.414 1.414zm-9.9 12.728H3v-4.243L16.435 3.324a1 1 0 0 1 1.414 0l2.829 2.829a1 1 0 0 1 0 1.414L7.243 21.002h-.001z"/></g><defs><clipPath id="a"><path fill="currentColor" d="M0 0h24v24H0z"/></clipPath></defs></symbol><symbol id="organization-chart" viewBox="0 0 24 24"><g clip-path="url(#a)"><path fill="currentColor" d="M15 3a1 1 0 0 1 1 1v4a1 1 0 0 1-1 1h-2v2h4a1 1 0 0 1 1 1v3h2a1 1 0 0 1 1 1v4a1 1 0 0 1-1 1h-6a1 1 0 0 1-1-1v-4a1 1 0 0 1 1-1h2v-2H8v2h2a1 1 0 0 1 1 1v4a1 1 0 0 1-1 1H4a1 1 0 0 1-1-1v-4a1 1 0 0 1 1-1h2v-3a1 1 0 0 1 1-1h4V9H9a1 1 0 0 1-1-1V4a1 1 0 0 1 1-1h6zM9 17H5v2h4v-2zm10 0h-4v2h4v-2zM14 5h-4v2h4V5z"/></g><defs><clipPath id="a"><path fill="currentColor" d="M0 0h24v24H0z"/></clipPath></defs></symbol><symbol id="rainy" viewBox="0 0 24 24"><g clip-path="url(#a)"><path fill="currentColor" d="M16 18v-2h1a4 4 0 1 0-2.157-7.37A6 6 0 1 0 8 15.917v2.022a8.001 8.001 0 1 1 7.98-11.852A6 6 0 1 1 17 18h-1zm-5.768.732L12 16.964l1.768 1.768a2.5 2.5 0 1 1-3.536 0z"/></g><defs><clipPath id="a"><path fill="currentColor" d="M0 0h24v24H0z"/></clipPath></defs></symbol><symbol id="notification" viewBox="0 0 24 24"><g clip-path="url(#a)"><path fill="currentColor" d="M22 20H2v-2h1v-6.969C3 6.043 7.03 2 12 2s9 4.043 9 9.031V18h1v2zM5 18h14v-6.969C19 7.148 15.866 4 12 4s-7 3.148-7 7.031V18zm4.5 3h5a2.5 2.5 0 0 1-5 0z"/></g><defs><clipPath id="a"><path fill="currentColor" d="M0 0h24v24H0z"/></clipPath></defs></symbol><symbol id="restaurant" viewBox="0 0 24 24"><g clip-path="url(#a)"><path fill="currentColor" d="M21 2v20h-2v-7h-4V8a6 6 0 0 1 6-6zm-2 2.53C18.17 5 17 6.17 17 8v5h2V4.53zM9 13.9V22H7v-8.1A5.002 5.002 0 0 1 3 9V3h2v7h2V3h2v7h2V3h2v6a5.002 5.002 0 0 1-4 4.9z"/></g><defs><clipPath id="a"><path fill="currentColor" d="M0 0h24v24H0z"/></clipPath></defs></symbol><symbol id="printer" viewBox="0 0 24 24"><g clip-path="url(#a)"><path fill="currentColor" d="M6 19H3a1 1 0 0 1-1-1V8a1 1 0 0 1 1-1h3V3a1 1 0 0 1 1-1h10a1 1 0 0 1 1 1v4h3a1 1 0 0 1 1 1v10a1 1 0 0 1-1 1h-3v2a1 1 0 0 1-1 1H7a1 1 0 0 1-1-1v-2zm0-2v-1a1 1 0 0 1 1-1h10a1 1 0 0 1 1 1v1h2V9H4v8h2zM8 4v3h8V4H8zm0 13v3h8v-3H8zm-3-7h3v2H5v-2z"/></g><defs><clipPath id="a"><path fill="currentColor" d="M0 0h24v24H0z"/></clipPath></defs></symbol><symbol id="refresh" viewBox="0 0 24 24"><g clip-path="url(#a)"><path fill="currentColor" d="M5.463 4.433A9.961 9.961 0 0 1 12 2c5.523 0 10 4.477 10 10 0 2.136-.67 4.116-1.81 5.74L17 12h3A8 8 0 0 0 6.46 6.228l-.997-1.795zm13.074 15.134A9.961 9.961 0 0 1 12 22C6.477 22 2 17.523 2 12c0-2.136.67-4.116 1.81-5.74L7 12H4a8 8 0 0 0 13.54 5.772l.997 1.795z"/></g><defs><clipPath id="a"><path fill="currentColor" d="M0 0h24v24H0z"/></clipPath></defs></symbol><symbol id="search" viewBox="0 0 24 24"><g clip-path="url(#a)"><path fill="currentColor" d="M18.031 16.617l4.283 4.282-1.415 1.415-4.282-4.283A8.96 8.96 0 0 1 11 20c-4.968 0-9-4.032-9-9s4.032-9 9-9 9 4.032 9 9a8.96 8.96 0 0 1-1.969 5.617zm-2.006-.742A6.977 6.977 0 0 0 18 11c0-3.868-3.133-7-7-7-3.868 0-7 3.132-7 7 0 3.867 3.132 7 7 7a6.977 6.977 0 0 0 4.875-1.975l.15-.15z"/></g><defs><clipPath id="a"><path fill="currentColor" d="M0 0h24v24H0z"/></clipPath></defs></symbol><symbol id="setting" viewBox="0 0 24 24"><g clip-path="url(#a)"><path fill="currentColor" d="M2 11.997c0-.865.11-1.703.316-2.504A3 3 0 0 0 4.99 4.864 9.99 9.99 0 0 1 9.325 2.36a3 3 0 0 0 5.348 0 9.99 9.99 0 0 1 4.335 2.505 3 3 0 0 0 2.675 4.63 10.036 10.036 0 0 1 0 5.007 3 3 0 0 0-2.675 4.63 9.99 9.99 0 0 1-4.335 2.504 3 3 0 0 0-5.348 0A9.99 9.99 0 0 1 4.99 19.13a3 3 0 0 0-2.675-4.63A10.056 10.056 0 0 1 2 11.997zm4.804 3c.63 1.091.81 2.346.564 3.524.408.29.842.541 1.297.75A4.993 4.993 0 0 1 12 17.997c1.26 0 2.438.471 3.335 1.274.455-.209.889-.46 1.297-.75a4.993 4.993 0 0 1 .564-3.524 4.992 4.992 0 0 1 2.77-2.25 8.134 8.134 0 0 0 0-1.5 4.993 4.993 0 0 1-2.771-2.25 4.993 4.993 0 0 1-.564-3.524 7.989 7.989 0 0 0-1.297-.75A4.993 4.993 0 0 1 12 5.997a4.993 4.993 0 0 1-3.335-1.274 7.99 7.99 0 0 0-1.297.75 4.993 4.993 0 0 1-.564 3.524 4.993 4.993 0 0 1-2.77 2.25 8.125 8.125 0 0 0 0 1.5 4.993 4.993 0 0 1 2.771 2.25h-.001zm5.196 0a3 3 0 1 1 0-6 3 3 0 0 1 0 6zm0-2a1 1 0 1 0 0-2 1 1 0 0 0 0 2z"/></g><defs><clipPath id="a"><path fill="currentColor" d="M0 0h24v24H0z"/></clipPath></defs></symbol><symbol id="restaurant2" viewBox="0 0 24 24"><g clip-path="url(#a)"><path fill="currentColor" d="M14.268 12.146l-.854.854 7.071 7.071-1.414 1.414L12 14.415l-7.071 7.07-1.414-1.414 9.339-9.339c-.588-1.457.02-3.555 1.62-5.157 1.953-1.952 4.644-2.427 6.011-1.06s.892 4.058-1.06 6.01c-1.602 1.602-3.7 2.21-5.157 1.621zM4.222 3.808l6.717 6.717-2.828 2.829-3.89-3.89a4 4 0 0 1 0-5.656zM18.01 9.11c1.258-1.257 1.517-2.726 1.06-3.182-.455-.456-1.924-.197-3.181 1.06-1.257 1.258-1.516 2.727-1.06 3.183.455.455 1.924.196 3.181-1.061z"/></g><defs><clipPath id="a"><path fill="currentColor" d="M0 0h24v24H0z"/></clipPath></defs></symbol><symbol id="school" viewBox="0 0 24 24"><g clip-path="url(#a)"><path fill="currentColor" d="M12 .586l6 6V9h4v10h1v2H1v-2h1V9h4V6.586l6-6zM18 19h2v-8h-2v8zM6 11H4v8h2v-8zm2-3.586V19h3v-7h2v7h3V7.414l-4-4-4 4z"/></g><defs><clipPath id="a"><path fill="currentColor" d="M0 0h24v24H0z"/></clipPath></defs></symbol><symbol id="setting-fill" viewBox="0 0 24 24"><g clip-path="url(#a)"><path fill="currentColor" d="M5.334 4.548A9.99 9.99 0 0 1 8.876 2.5 3.993 3.993 0 0 0 12 4.002 3.993 3.993 0 0 0 15.124 2.5a9.99 9.99 0 0 1 3.542 2.048 3.994 3.994 0 0 0 1.47 4.758 3.985 3.985 0 0 0 1.655.651c.28 1.349.28 2.741 0 4.09a3.996 3.996 0 0 0-3.389 3.653 3.992 3.992 0 0 0 .264 1.757 9.99 9.99 0 0 1-3.542 2.047A3.993 3.993 0 0 0 12 20.003a3.993 3.993 0 0 0-3.124 1.502 9.99 9.99 0 0 1-3.542-2.047 3.993 3.993 0 0 0-.262-3.455 3.993 3.993 0 0 0-2.863-1.954 10.032 10.032 0 0 1 0-4.091 3.993 3.993 0 0 0 2.863-1.955 3.993 3.993 0 0 0 .262-3.454v-.001zM13.5 14.6a3 3 0 1 0-2.965-5.215A3 3 0 0 0 13.5 14.6z"/></g><defs><clipPath id="a"><path fill="currentColor" d="M0 0h24v24H0z"/></clipPath></defs></symbol><symbol id="snowy" viewBox="0 0 24 24"><g clip-path="url(#a)"><path fill="currentColor" d="M13 16.265l1.964-1.134 1 1.732L14 17.997l1.964 1.134-1 1.732L13 19.729v2.268h-2v-2.268l-1.964 1.134-1-1.732L10 17.997l-1.964-1.134 1-1.732L11 16.265v-2.268h2v2.268zm4 1.732v-2h.5a3.5 3.5 0 1 0-2.5-5.95v-.05a6 6 0 1 0-8 5.659v2.089a8 8 0 1 1 9.458-10.65A5.5 5.5 0 1 1 17.5 17.997H17z"/></g><defs><clipPath id="a"><path fill="currentColor" d="M0 0h24v24H0z"/></clipPath></defs></symbol><symbol id="setting2" viewBox="0 0 24 24"><g clip-path="url(#a)"><path fill="currentColor" d="M2.213 14.063a9.945 9.945 0 0 1 0-4.12c1.11.13 2.08-.237 2.396-1.001.317-.765-.108-1.71-.986-2.403a9.945 9.945 0 0 1 2.913-2.913c.692.877 1.638 1.303 2.403.986.765-.317 1.132-1.286 1-2.396a9.945 9.945 0 0 1 4.12 0c-.13 1.11.238 2.08 1.002 2.396.765.317 1.71-.108 2.403-.986a9.947 9.947 0 0 1 2.913 2.913c-.877.692-1.303 1.638-.986 2.403.317.765 1.286 1.132 2.396 1a9.945 9.945 0 0 1 0 4.12c-1.11-.13-2.08.238-2.396 1.002-.317.765.108 1.71.986 2.403a9.946 9.946 0 0 1-2.913 2.913c-.692-.877-1.638-1.303-2.403-.986-.765.317-1.132 1.286-1.001 2.396a9.945 9.945 0 0 1-4.12 0c.13-1.11-.237-2.08-1.001-2.396-.765-.317-1.71.108-2.403.986a9.944 9.944 0 0 1-2.913-2.913c.877-.692 1.303-1.638.986-2.403-.317-.765-1.286-1.132-2.396-1.001zM4 12.213c1.1.305 2.007 1.002 2.457 2.086.449 1.085.3 2.22-.262 3.212.096.102.195.2.297.297.993-.562 2.127-.71 3.212-.262 1.084.45 1.78 1.357 2.086 2.457.14.004.28.004.42 0 .305-1.1 1.002-2.007 2.086-2.457 1.085-.45 2.22-.3 3.212.262.102-.096.2-.195.297-.297-.562-.993-.71-2.127-.262-3.212.45-1.084 1.357-1.781 2.457-2.086.004-.14.004-.28 0-.42-1.1-.305-2.007-1.002-2.457-2.086-.45-1.085-.3-2.22.262-3.212a7.967 7.967 0 0 0-.297-.297c-.993.562-2.127.71-3.212.262-1.084-.45-1.781-1.357-2.086-2.457a7.947 7.947 0 0 0-.42 0c-.305 1.1-1.002 2.007-2.086 2.457-1.085.449-2.22.3-3.212-.262a6.932 6.932 0 0 0-.297.297c.562.993.71 2.127.262 3.212C6.007 10.79 5.1 11.487 4 11.793c-.004.14-.004.28 0 .42zm8 2.79a3 3 0 1 1 0-6 3 3 0 0 1 0 6zm0-2a1 1 0 1 0 0-2 1 1 0 0 0 0 2z"/></g><defs><clipPath id="a"><path fill="currentColor" d="M0 0h24v24H0z"/></clipPath></defs></symbol><symbol id="star" viewBox="0 0 24 24"><g clip-path="url(#a)"><path fill="currentColor" d="M12 18.26l-7.053 3.948 1.575-7.928L.587 8.792l8.027-.952L12 .5l3.386 7.34 8.027.952-5.935 5.488 1.575 7.928L12 18.26zm0-2.292l4.247 2.377-.95-4.773 3.574-3.305-4.833-.573L12 5.275l-2.038 4.42-4.833.572 3.573 3.305-.95 4.773L12 15.968z"/></g><defs><clipPath id="a"><path fill="currentColor" d="M0 0h24v24H0z"/></clipPath></defs></symbol><symbol id="star-fill" viewBox="0 0 24 24"><g clip-path="url(#a)"><path fill="currentColor" d="M12 18.26l-7.053 3.948 1.575-7.928L.587 8.792l8.027-.952L12 .5l3.386 7.34 8.027.952-5.935 5.488 1.575 7.928L12 18.26z"/></g><defs><clipPath id="a"><path fill="currentColor" d="M0 0h24v24H0z"/></clipPath></defs></symbol><symbol id="sun" viewBox="0 0 24 24"><g clip-path="url(#a)"><path fill="currentColor" d="M12 18a6 6 0 1 1 0-12 6 6 0 0 1 0 12zm0-2a4 4 0 1 0 0-8 4 4 0 0 0 0 8zM11 1h2v3h-2V1zm0 19h2v3h-2v-3zM3.515 4.929l1.414-1.414L7.05 5.636 5.636 7.05 3.515 4.93v-.001zM16.95 18.364l1.414-1.414 2.121 2.121-1.414 1.414-2.121-2.121zm2.121-14.85l1.414 1.415-2.121 2.121-1.414-1.414 2.121-2.121v-.001zM5.636 16.95l1.414 1.414-2.121 2.121-1.414-1.414 2.121-2.121zM23 11v2h-3v-2h3zM4 11v2H1v-2h3z"/></g><defs><clipPath id="a"><path fill="currentColor" d="M0 0h24v24H0z"/></clipPath></defs></symbol><symbol id="sun-cloud" viewBox="0 0 24 24"><g clip-path="url(#a)"><path fill="currentColor" d="M9.984 5.056a6.5 6.5 0 1 1 11.286 6.436 5.5 5.5 0 0 1-3.77 9.504H9a8.001 8.001 0 1 1 .984-15.94zm2.07.544a8.028 8.028 0 0 1 4.404 4.495 5.528 5.528 0 0 1 3.12.307A4.5 4.5 0 0 0 12.056 5.6h-.001zM17.5 18.996a3.5 3.5 0 1 0-2.5-5.95v-.05a6 6 0 1 0-6 6h8.5z"/></g><defs><clipPath id="a"><path fill="currentColor" d="M0 0h24v24H0z"/></clipPath></defs></symbol><symbol id="subtract" viewBox="0 0 24 24"><g clip-path="url(#a)"><path fill="currentColor" d="M5 11h14v2H5v-2z"/></g><defs><clipPath id="a"><path fill="currentColor" d="M0 0h24v24H0z"/></clipPath></defs></symbol><symbol id="switch" viewBox="0 0 24 24"><g clip-path="url(#a)"><path fill="currentColor" d="M16.05 12.047l4.95 4.95-4.95 4.95-1.414-1.414 2.536-2.537H4v-2h13.172l-2.536-2.535 1.414-1.414zm-8.1-10L9.364 3.46 6.828 5.997H20v2H6.828l2.536 2.536-1.414 1.414L3 6.997l4.95-4.95z"/></g><defs><clipPath id="a"><path fill="currentColor" d="M0 0h24v24H0z"/></clipPath></defs></symbol><symbol id="todo" viewBox="0 0 24 24"><g clip-path="url(#a)"><path fill="currentColor" d="M17 2h3a1 1 0 0 1 1 1v18a1 1 0 0 1-1 1H4a1 1 0 0 1-1-1V3a1 1 0 0 1 1-1h3V0h2v2h6V0h2v2zm0 2v2h-2V4H9v2H7V4H5v16h14V4h-2zM7 8h10v2H7V8zm0 4h10v2H7v-2z"/></g><defs><clipPath id="a"><path fill="currentColor" d="M0 0h24v24H0z"/></clipPath></defs></symbol><symbol id="usergroup" viewBox="0 0 24 24"><g clip-path="url(#a)"><path fill="currentColor" d="M2 22a8 8 0 0 1 16 0h-2a6 6 0 1 0-12 0H2zm8-9c-3.315 0-6-2.685-6-6s2.685-6 6-6 6 2.685 6 6-2.685 6-6 6zm0-2c2.21 0 4-1.79 4-4s-1.79-4-4-4-4 1.79-4 4 1.79 4 4 4zm8.284 3.703A8.002 8.002 0 0 1 23 22h-2a6 6 0 0 0-3.537-5.473l.82-1.824h.001zm-.688-11.29a5.5 5.5 0 0 1 1.966 8.796A5.499 5.499 0 0 1 16 13.978v-2.013a3.5 3.5 0 0 0 1.041-6.609l.555-1.943z"/></g><defs><clipPath id="a"><path fill="currentColor" d="M0 0h24v24H0z"/></clipPath></defs></symbol><symbol id="user_info" viewBox="0 0 24 24"><g clip-path="url(#a)"><path fill="currentColor" d="M19 7h5v2h-5V7zm-2 5h7v2h-7v-2zm3 5h4v2h-4v-2zM2 22a8 8 0 0 1 16 0h-2a6 6 0 1 0-12 0H2zm8-9c-3.315 0-6-2.685-6-6s2.685-6 6-6 6 2.685 6 6-2.685 6-6 6zm0-2c2.21 0 4-1.79 4-4s-1.79-4-4-4-4 1.79-4 4 1.79 4 4 4z"/></g><defs><clipPath id="a"><path fill="currentColor" d="M0 0h24v24H0z"/></clipPath></defs></symbol><symbol id="user" viewBox="0 0 24 24"><g clip-path="url(#a)"><path fill="currentColor" d="M4 22a8 8 0 0 1 16 0h-2a6 6 0 1 0-12 0H4zm8-9c-3.315 0-6-2.685-6-6s2.685-6 6-6 6 2.685 6 6-2.685 6-6 6zm0-2c2.21 0 4-1.79 4-4s-1.79-4-4-4-4 1.79-4 4 1.79 4 4 4z"/></g><defs><clipPath id="a"><path fill="currentColor" d="M0 0h24v24H0z"/></clipPath></defs></symbol><symbol id="volume-up" viewBox="0 0 24 24"><g clip-path="url(#a)"><path fill="currentColor" d="M10 7.22L6.603 10H3v4h3.603L10 16.78V7.22zM5.889 16H2a1 1 0 0 1-1-1V9a1 1 0 0 1 1-1h3.889l5.294-4.332a.5.5 0 0 1 .817.387v15.89a.5.5 0 0 1-.817.387L5.89 16h-.001zm13.517 4.134l-1.416-1.416A8.977 8.977 0 0 0 21 12a8.983 8.983 0 0 0-3.304-6.968l1.42-1.42A10.977 10.977 0 0 1 23 12c0 3.223-1.386 6.122-3.594 8.134zm-3.543-3.543l-1.422-1.422A3.992 3.992 0 0 0 16 12c0-1.43-.75-2.685-1.88-3.392l1.439-1.439A5.99 5.99 0 0 1 18 12c0 1.842-.83 3.49-2.137 4.591z"/></g><defs><clipPath id="a"><path fill="currentColor" d="M0 0h24v24H0z"/></clipPath></defs></symbol><symbol id="window" viewBox="0 0 24 24"><g clip-path="url(#a)"><path fill="currentColor" d="M3 3h18a1 1 0 0 1 1 1v16a1 1 0 0 1-1 1H3a1 1 0 0 1-1-1V4a1 1 0 0 1 1-1zm17 8H4v8h16v-8zm0-2V5H4v4h16zm-5-3h4v2h-4V6z"/></g><defs><clipPath id="a"><path fill="currentColor" d="M0 0h24v24H0z"/></clipPath></defs></symbol><symbol id="add" viewBox="0 0 24 24"><g clip-path="url(#a)"><path fill="currentColor" d="M11 11V5h2v6h6v2h-6v6h-2v-6H5v-2h6z"/></g><defs><clipPath id="a"><path fill="currentColor" d="M0 0h24v24H0z"/></clipPath></defs></symbol><symbol id="window-open" viewBox="0 0 24 24"><g clip-path="url(#a)"><path fill="currentColor" fill-rule="evenodd" d="M9 6v9h11V6H9zM8 2a1 1 0 0 0-1 1v4H3a1 1 0 0 0-1 1v13a1 1 0 0 0 1 1h13a1 1 0 0 0 1-1v-4h4a1 1 0 0 0 1-1V3a1 1 0 0 0-1-1H8zm7 15v3H4V9h3v7a1 1 0 0 0 1 1h7z" clip-rule="evenodd"/></g><defs><clipPath id="a"><path fill="currentColor" d="M0 0h24v24H0z"/></clipPath></defs></symbol><symbol id="alarm" viewBox="0 0 24 24"><g clip-path="url(#a)"><path fill="currentColor" d="M12 22.003a9 9 0 1 1 0-18 9 9 0 0 1 0 18zm0-2a7.002 7.002 0 0 0 6.467-9.679A7 7 0 1 0 12 20.003zm1-7h3v2h-5v-7h2v5zM1.747 6.285L5.282 2.75l1.415 1.414L3.16 7.7 1.747 6.285zm16.97-3.535l3.536 3.535L20.84 7.7l-3.536-3.536 1.415-1.414z"/></g><defs><clipPath id="a"><path fill="currentColor" d="M0 0h24v24H0z"/></clipPath></defs></symbol><symbol id="archive" viewBox="0 0 24 24"><g clip-path="url(#a)"><path fill="currentColor" d="M3 10H2V4.003C2 3.449 2.455 3 2.992 3h18.016A.99.99 0 0 1 22 4.003V10h-1v10.001a.996.996 0 0 1-.993.999H3.993A.995.995 0 0 1 3 20.001V10zm16 0H5v9h14v-9zM4 5v3h16V5H4zm5 7h6v2H9v-2z"/></g><defs><clipPath id="a"><path fill="currentColor" d="M0 0h24v24H0z"/></clipPath></defs></symbol><symbol id="arrow-down" viewBox="0 0 24 24"><g clip-path="url(#a)"><path fill="currentColor" d="M12 13.169l4.95-4.95 1.414 1.414L12 15.997 5.636 9.633 7.05 8.219l4.95 4.95z"/></g><defs><clipPath id="a"><path fill="currentColor" d="M0 0h24v24H0z"/></clipPath></defs></symbol><symbol id="arrow-left" viewBox="0 0 24 24"><g clip-path="url(#a)"><path fill="currentColor" d="M10.828 11.997l4.95 4.95-1.414 1.414L8 11.997l6.364-6.364 1.414 1.414-4.95 4.95z"/></g><defs><clipPath id="a"><path fill="currentColor" d="M0 0h24v24H0z"/></clipPath></defs></symbol><symbol id="arrow-left-double" viewBox="0 0 24 24"><g fill="currentColor" clip-path="url(#a)"><path d="M6.828 12.005l4.95 4.95-1.414 1.414L4 12.005l6.364-6.364 1.414 1.414-4.95 4.95z"/><path d="M13.828 12.005l4.95 4.95-1.414 1.414L11 12.005l6.364-6.364 1.414 1.414-4.95 4.95z"/></g><defs><clipPath id="a"><path fill="currentColor" d="M0 0h24v24H0z"/></clipPath></defs></symbol><symbol id="arrow-right-double" viewBox="0 0 24 24"><g fill="currentColor" clip-path="url(#a)"><path d="M17.172 12.005l-4.95 4.95 1.414 1.414L20 12.005 13.636 5.64l-1.414 1.414 4.95 4.95z"/><path d="M10.172 12.005l-4.95 4.95 1.414 1.414L13 12.005 6.636 5.64 5.222 7.055l4.95 4.95z"/></g><defs><clipPath id="a"><path fill="currentColor" d="M0 0h24v24H0z" transform="matrix(-1 0 0 1 24 0)"/></clipPath></defs></symbol><symbol id="arrow-right" viewBox="0 0 24 24"><g clip-path="url(#a)"><path fill="currentColor" d="M13.172 11.997l-4.95-4.95 1.414-1.414L16 11.997 9.636 18.36l-1.414-1.414 4.95-4.95z"/></g><defs><clipPath id="a"><path fill="currentColor" d="M0 0h24v24H0z"/></clipPath></defs></symbol><symbol id="arrow-up" viewBox="0 0 24 24"><g clip-path="url(#a)"><path fill="currentColor" d="M12 10.828l-4.95 4.95-1.414-1.414L12 8l6.364 6.364-1.414 1.414-4.95-4.95z"/></g><defs><clipPath id="a"><path fill="currentColor" d="M0 0h24v24H0z"/></clipPath></defs></symbol><symbol id="attachment" viewBox="0 0 24 24"><g clip-path="url(#a)"><path fill="currentColor" d="M14.828 7.755l-5.656 5.657a1 1 0 1 0 1.414 1.414l5.657-5.656A3 3 0 0 0 12 4.927l-5.657 5.657a5.001 5.001 0 1 0 7.071 7.07l5.657-5.656 1.414 1.414-5.657 5.657a7 7 0 0 1-9.9-9.9l5.658-5.656a5 5 0 0 1 7.07 7.07L12 16.242a3.002 3.002 0 0 1-4.243-4.244l5.657-5.657 1.414 1.414z"/></g><defs><clipPath id="a"><path fill="currentColor" d="M0 0h24v24H0z"/></clipPath></defs></symbol><symbol id="blog" viewBox="0 0 24 24"><g fill="currentColor" clip-path="url(#a)"><path d="M12 21.8c-.495 0-.954-.256-1.229-.668-.064-.083-.091-.147-.091-.147l-1.34-2.182H5.106c-2.264 0-4.097-1.842-4.097-4.116v-7.57A4.098 4.098 0 0 1 5.097 3h13.796c2.264 0 4.098 1.843 4.098 4.116v7.58c0 2.265-1.843 4.117-4.098 4.117h-4.235l-1.338 2.181s-.055.101-.101.156a1.45 1.45 0 0 1-1.22.65zM5.097 4.834c-1.247 0-2.264 1.027-2.264 2.283v7.58c0 1.257 1.017 2.283 2.264 2.283h5.262l1.632 2.659 1.631-2.659h5.262a2.278 2.278 0 0 0 2.264-2.282V7.116c0-1.256-1.017-2.283-2.264-2.283H5.097z"/><path d="M6.399 9.468s-.55 0-1.045.486V7.992H4.116v5.143h1.247v-.404s.293.532 1.036.532c0 0 1.741-.064 1.741-1.916 0 0-.064-1.879-1.741-1.879zm-.275 2.713a.798.798 0 1 1 0-1.596.798.798 0 0 1 0 1.596zm2.411-4.298v1.191s.56-.027.56 1.027v3.043h1.191V9.818s.055-1.934-1.75-1.934zm4.657 1.609s-2.044 0-2.044 1.907c0 0-.064 1.879 2.044 1.879 0 0 2.09 0 2.09-1.88 0 0 .064-1.906-2.09-1.906zm0 2.695a.798.798 0 1 1 0-1.596.798.798 0 0 1 0 1.596zm5.5-2.575v.348s-.358-.467-1.036-.467c0 0-1.75-.074-1.75 1.888 0 0-.02 1.833 1.695 1.833 0 0 .697.028 1.082-.467v.284s.082.898-.789.898h-.293v1.091h.477s1.806.018 1.806-1.925V9.612h-1.201.009zm-.733 2.575a.798.798 0 1 1 0-1.596.798.798 0 0 1 0 1.597z"/></g><defs><clipPath id="a"><path fill="currentColor" d="M0 0h22v18.8H0z" transform="translate(1 3)"/></clipPath></defs></symbol><symbol id="calendar-check" viewBox="0 0 24 24"><g clip-path="url(#a)"><path fill="currentColor" d="M9 1v2h6V1h2v2h4a1 1 0 0 1 1 1v16a1 1 0 0 1-1 1H3a1 1 0 0 1-1-1V4a1 1 0 0 1 1-1h4V1h2zm11 9H4v9h16v-9zm-4.964 1.136l1.414 1.414-4.95 4.95-3.536-3.536L9.38 12.55l2.121 2.122 3.536-3.536h-.001zM7 5H4v3h16V5h-3v1h-2V5H9v1H7V5z"/></g><defs><clipPath id="a"><path fill="currentColor" d="M0 0h24v24H0z"/></clipPath></defs></symbol><symbol id="calendar" viewBox="0 0 24 24"><g clip-path="url(#a)"><path fill="currentColor" d="M17 3h4a1 1 0 0 1 1 1v16a1 1 0 0 1-1 1H3a1 1 0 0 1-1-1V4a1 1 0 0 1 1-1h4V1h2v2h6V1h2v2zm3 8H4v8h16v-8zm-5-6H9v2H7V5H4v4h16V5h-3v2h-2V5zm-9 8h2v2H6v-2zm5 0h2v2h-2v-2zm5 0h2v2h-2v-2z"/></g><defs><clipPath id="a"><path fill="currentColor" d="M0 0h24v24H0z"/></clipPath></defs></symbol><symbol id="arrow-up-down" viewBox="0 0 24 24"><g clip-path="url(#a)"><path fill="currentColor" d="M11.95 7.95l-1.414 1.414L8 6.828V20H6V6.828L3.465 9.364 2.05 7.95 7 3l4.95 4.95zm10 8.1L17 21l-4.95-4.95 1.414-1.414L16 17.172V4h2v13.172l2.536-2.536 1.414 1.414z"/></g><defs><clipPath id="a"><path fill="currentColor" d="M0 0h24v24H0z"/></clipPath></defs></symbol><symbol id="cast" viewBox="0 0 24 24"><g clip-path="url(#a)"><path fill="currentColor" d="M3 3h18a1 1 0 0 1 1 1v16a1 1 0 0 1-1 1h-6c0-.67-.051-1.338-.153-2H20V5H4v3.153A13.1 13.1 0 0 0 2 8V4a1 1 0 0 1 1-1zm10 18h-2a9 9 0 0 0-9-9v-2c6.075 0 11 4.925 11 11zm-4 0H7a5 5 0 0 0-5-5v-2a7 7 0 0 1 7 7zm-4 0H2v-3a3 3 0 0 1 3 3z"/></g><defs><clipPath id="a"><path fill="currentColor" d="M0 0h24v24H0z"/></clipPath></defs></symbol><symbol id="chatting" viewBox="0 0 24 24"><g clip-path="url(#a)"><path fill="currentColor" d="M6.455 19L2 22.5V4a1 1 0 0 1 1-1h18a1 1 0 0 1 1 1v14a1 1 0 0 1-1 1H6.455zm-.692-2H20V5H4v13.385L5.763 17zM11 10h2v2h-2v-2zm-4 0h2v2H7v-2zm8 0h2v2h-2v-2z"/></g><defs><clipPath id="a"><path fill="currentColor" d="M0 0h24v24H0z"/></clipPath></defs></symbol><symbol id="calendar-fill" viewBox="0 0 24 24"><g clip-path="url(#a)"><path fill="currentColor" d="M17 3h4a1 1 0 0 1 1 1v16a1 1 0 0 1-1 1H3a1 1 0 0 1-1-1V4a1 1 0 0 1 1-1h4V1h2v2h6V1h2v2zM4 9v10h16V9H4zm2 2h2v2H6v-2zm5 0h2v2h-2v-2zm5 0h2v2h-2v-2z"/></g><defs><clipPath id="a"><path fill="currentColor" d="M0 0h24v24H0z"/></clipPath></defs></symbol><symbol id="comment" viewBox="0 0 24 24"><g clip-path="url(#clip0_1090_201847)"><path fill="currentColor" d="M5.763 17H20V5H4v13.385L5.763 17zm.692 2L2 22.5V4a1 1 0 0 1 1-1h18a1 1 0 0 1 1 1v14a1 1 0 0 1-1 1H6.455z"/></g><defs><clipPath id="clip0_1090_201847"><path fill="currentColor" d="M0 0h24v24H0z"/></clipPath></defs></symbol><symbol id="comment-fill" viewBox="0 0 24 24"><g clip-path="url(#clip0_1090_204806)"><path fill="currentColor" d="M6.455 19L2 22.5V4a1 1 0 0 1 1-1h18a1 1 0 0 1 1 1v14a1 1 0 0 1-1 1H6.455z"/></g><defs><clipPath id="clip0_1090_204806"><path fill="currentColor" d="M0 0h24v24H0z"/></clipPath></defs></symbol><symbol id="lock" viewBox="0 0 24 24"><g clip-path="url(#clip0_932_173486)"><path fill="currentColor" d="M19 10h1a1 1 0 0 1 1 1v10a1 1 0 0 1-1 1H4a1 1 0 0 1-1-1V11a1 1 0 0 1 1-1h1V9a7 7 0 0 1 14 0v1zM5 12v8h14v-8H5zm6 2h2v4h-2v-4zm6-4V9A5 5 0 0 0 7 9v1h10z"/></g><defs><clipPath id="clip0_932_173486"><path fill="currentColor" d="M0 0h24v24H0z"/></clipPath></defs></symbol><symbol id="heart" viewBox="0 0 24 24"><g clip-path="url(#clip0_1090_202070)"><path fill="currentColor" d="M12.001 4.529a5.998 5.998 0 0 1 8.242.228 6 6 0 0 1 .236 8.236l-8.48 8.492-8.478-8.492a6 6 0 0 1 8.48-8.464zm6.826 1.641a3.998 3.998 0 0 0-5.49-.153l-1.335 1.198-1.336-1.197a3.999 3.999 0 0 0-5.494.154 4 4 0 0 0-.192 5.451L12 18.654l7.02-7.03a4 4 0 0 0-.193-5.454z"/></g><defs><clipPath id="clip0_1090_202070"><path fill="currentColor" d="M0 0h24v24H0z"/></clipPath></defs></symbol><symbol id="close-rectangle-fill" viewBox="0 0 24 24"><path fill="currentColor" d="M0 0h24v24H0z"/><g clip-path="url(#clip0_1337_190970)"><path fill="currentColor" d="M12 10.583l4.95-4.95 1.414 1.414-4.95 4.95 4.95 4.95-1.414 1.414L12 13.41l-4.95 4.95-1.414-1.414 4.95-4.95-4.95-4.95L7.05 5.633l4.95 4.95z"/></g><defs><clipPath id="clip0_1337_190970"><path fill="currentColor" d="M0 0h24v24H0z"/></clipPath></defs></symbol><symbol id="heart-fill" viewBox="0 0 24 24"><g clip-path="url(#clip0_1090_201478)"><path fill="currentColor" d="M12.001 4.529a5.998 5.998 0 0 1 8.242.228 6 6 0 0 1 .236 8.236l-8.48 8.492-8.478-8.492a6 6 0 0 1 8.48-8.464z"/></g><defs><clipPath id="clip0_1090_201478"><path fill="currentColor" d="M0 0h24v24H0z"/></clipPath></defs></symbol><symbol id="loader" viewBox="0 0 24 24"><g clip-path="url(#clip0_946_194983)"><path fill="currentColor" d="M12 2a1 1 0 0 1 1 1v3a1 1 0 0 1-2 0V3a1 1 0 0 1 1-1zm0 15a1 1 0 0 1 1 1v3a1 1 0 0 1-2 0v-3a1 1 0 0 1 1-1zm10-5a1 1 0 0 1-1 1h-3a1 1 0 0 1 0-2h3a1 1 0 0 1 1 1zM7 12a1 1 0 0 1-1 1H3a1 1 0 0 1 0-2h3a1 1 0 0 1 1 1zm12.071 7.071a1 1 0 0 1-1.414 0l-2.121-2.121a1 1 0 0 1 1.414-1.414l2.121 2.12a1.001 1.001 0 0 1 0 1.415zM8.464 8.464a1 1 0 0 1-1.414 0l-2.12-2.12a1 1 0 0 1 1.414-1.415l2.12 2.121a1 1 0 0 1 0 1.414zM4.93 19.071a1 1 0 0 1 0-1.414l2.121-2.121a1 1 0 1 1 1.414 1.414l-2.12 2.121a1 1 0 0 1-1.415 0zM15.536 8.464a1 1 0 0 1 0-1.414l2.12-2.121a1 1 0 1 1 1.415 1.414L16.95 8.464a1 1 0 0 1-1.414 0z"/></g><defs><clipPath id="clip0_946_194983"><path fill="currentColor" d="M0 0h24v24H0z"/></clipPath></defs></symbol><symbol id="pin" viewBox="0 0 24 24"><path fill="currentColor" d="M18 3v2h-1v6l2 3v2h-6v7h-2v-7H5v-2l2-3V5H6V3h12zM9 5v6.606L7.404 14h9.192L15 11.606V5H9z"/></symbol><symbol id="new" viewBox="0 0 24 24"><path fill="currentColor" fill-rule="evenodd" d="M5.333 2A3.333 3.333 0 0 0 2 5.333v13.334A3.333 3.333 0 0 0 5.333 22h13.334A3.333 3.333 0 0 0 22 18.667V5.333A3.333 3.333 0 0 0 18.667 2H5.333zm9.238 15.427h1.945V6.594h-2.23v6.883h-.104L9.454 6.594H7.479v10.833h2.244v-6.883h.09l4.758 6.883z" clip-rule="evenodd"/></symbol></svg>