<svg xmlns="http://www.w3.org/2000/svg" width="24" height="24" fill="none" viewBox="0 0 24 24"><g fill="#333" clip-path="url(#a)"><path d="M12 21.8c-.495 0-.954-.256-1.229-.668-.064-.083-.091-.147-.091-.147l-1.34-2.182H5.106c-2.264 0-4.097-1.842-4.097-4.116v-7.57A4.098 4.098 0 0 1 5.097 3h13.796c2.264 0 4.098 1.843 4.098 4.116v7.58c0 2.265-1.843 4.117-4.098 4.117h-4.235l-1.338 2.181s-.055.101-.101.156a1.45 1.45 0 0 1-1.22.65zM5.097 4.834c-1.247 0-2.264 1.027-2.264 2.283v7.58c0 1.257 1.017 2.283 2.264 2.283h5.262l1.632 2.659 1.631-2.659h5.262a2.278 2.278 0 0 0 2.264-2.282V7.116c0-1.256-1.017-2.283-2.264-2.283H5.097z"/><path d="M6.399 9.468s-.55 0-1.045.486V7.992H4.116v5.143h1.247v-.404s.293.532 1.036.532c0 0 1.741-.064 1.741-1.916 0 0-.064-1.879-1.741-1.879zm-.275 2.713a.798.798 0 1 1 0-1.596.798.798 0 0 1 0 1.596zm2.411-4.298v1.191s.56-.027.56 1.027v3.043h1.191V9.818s.055-1.934-1.75-1.934zm4.657 1.609s-2.044 0-2.044 1.907c0 0-.064 1.879 2.044 1.879 0 0 2.09 0 2.09-1.88 0 0 .064-1.906-2.09-1.906zm0 2.695a.798.798 0 1 1 0-1.596.798.798 0 0 1 0 1.596zm5.5-2.575v.348s-.358-.467-1.036-.467c0 0-1.75-.074-1.75 1.888 0 0-.02 1.833 1.695 1.833 0 0 .697.028 1.082-.467v.284s.082.898-.789.898h-.293v1.091h.477s1.806.018 1.806-1.925V9.612h-1.201.009zm-.733 2.575a.798.798 0 1 1 0-1.596.798.798 0 0 1 0 1.597z"/></g><defs><clipPath id="a"><path fill="#fff" d="M0 0h22v18.8H0z" transform="translate(1 3)"/></clipPath></defs></svg>