<svg xmlns="http://www.w3.org/2000/svg" width="24" height="24" fill="none" viewBox="0 0 24 24"><g clip-path="url(#clip0_1090_202070)"><path fill="#333" d="M12.001 4.529a5.998 5.998 0 0 1 8.242.228 6 6 0 0 1 .236 8.236l-8.48 8.492-8.478-8.492a6 6 0 0 1 8.48-8.464zm6.826 1.641a3.998 3.998 0 0 0-5.49-.153l-1.335 1.198-1.336-1.197a3.999 3.999 0 0 0-5.494.154 4 4 0 0 0-.192 5.451L12 18.654l7.02-7.03a4 4 0 0 0-.193-5.454z"/></g><defs><clipPath id="clip0_1090_202070"><path fill="#fff" d="M0 0h24v24H0z"/></clipPath></defs></svg>