<svg xmlns="http://www.w3.org/2000/svg" width="32" height="32" fill="none" viewBox="0 0 32 32"><g clip-path="url(#clip0_2739_10065)"><mask id="mask0_2739_10065" width="32" height="32" x="0" y="0" maskUnits="userSpaceOnUse" style="mask-type:alpha"><path fill="#fff" d="M26.585 10.667H28a2.667 2.667 0 0 1 2.666 2.667v5.333A2.667 2.667 0 0 1 28 21.334h-1.416c-.656 5.262-5.145 9.333-10.584 9.333v-2.666a8 8 0 0 0 8-8v-8a8 8 0 0 0-16 0v9.333H4a2.667 2.667 0 0 1-2.667-2.667v-5.333A2.667 2.667 0 0 1 4 10.667h1.415C6.072 5.406 10.56 1.334 16 1.334c5.44 0 9.928 4.072 10.584 9.333zM4 13.334v5.333h1.333v-5.333H4.001zm22.666 0v5.333H28v-5.333h-1.334z"/></mask><g mask="url(#mask0_2739_10065)"><path fill="currentColor" d="M0 0h32v32H0z"/></g></g><defs><clipPath id="clip0_2739_10065"><path fill="#fff" d="M0 0h32v32H0z"/></clipPath></defs></svg>