<svg xmlns="http://www.w3.org/2000/svg" width="32" height="32" fill="none" viewBox="0 0 32 32"><path fill="#333" d="M16 29.333c-7.364 0-13.334-5.97-13.334-13.334 0-7.363 5.97-13.333 13.333-13.333 7.364 0 13.334 5.97 13.334 13.333 0 7.364-5.97 13.334-13.334 13.334zm0-2.667c5.89 0 10.666-4.776 10.666-10.667 0-5.89-4.776-10.666-10.667-10.666-5.89 0-10.666 4.775-10.666 10.666s4.775 10.667 10.666 10.667zm1.333-12.667v6h1.333v2.667h-5.333v-2.667h1.333v-3.333h-1.333v-2.667h4zm.666-3.333a2 2 0 1 1-4 0 2 2 0 0 1 4 0z"/></svg>