<svg xmlns="http://www.w3.org/2000/svg" width="24" height="24" fill="none" viewBox="0 0 24 24"><g clip-path="url(#a)"><path fill="#333" d="M18.364 15.536L16.95 14.12l1.414-1.414a4.999 4.999 0 0 0-3.53-8.55 5 5 0 0 0-3.54 1.48L9.878 7.05 8.464 5.636 9.88 4.222a7 7 0 0 1 9.9 9.9l-1.415 1.414zm-2.828 2.828l-1.415 1.414a7 7 0 1 1-9.9-9.9l1.415-1.414L7.05 9.88l-1.414 1.414a5 5 0 1 0 7.071 7.071l1.414-1.414 1.415 1.414zm-.708-10.607l1.415 1.415-7.07 7.07-1.416-1.414 7.071-7.07z"/></g><defs><clipPath id="a"><path fill="#fff" d="M0 0h24v24H0z"/></clipPath></defs></svg>