<svg xmlns="http://www.w3.org/2000/svg" width="24" height="24" fill="none" viewBox="0 0 24 24"><g clip-path="url(#a)"><path fill="#333" d="M5.334 4.548A9.99 9.99 0 0 1 8.876 2.5 3.993 3.993 0 0 0 12 4.002 3.993 3.993 0 0 0 15.124 2.5a9.99 9.99 0 0 1 3.542 2.048 3.994 3.994 0 0 0 1.47 4.758 3.985 3.985 0 0 0 1.655.651c.28 1.349.28 2.741 0 4.09a3.996 3.996 0 0 0-3.389 3.653 3.992 3.992 0 0 0 .264 1.757 9.99 9.99 0 0 1-3.542 2.047A3.993 3.993 0 0 0 12 20.003a3.993 3.993 0 0 0-3.124 1.502 9.99 9.99 0 0 1-3.542-2.047 3.993 3.993 0 0 0-.262-3.455 3.993 3.993 0 0 0-2.863-1.954 10.032 10.032 0 0 1 0-4.091 3.993 3.993 0 0 0 2.863-1.955 3.993 3.993 0 0 0 .262-3.454v-.001zM13.5 14.6a3 3 0 1 0-2.965-5.215A3 3 0 0 0 13.5 14.6z"/></g><defs><clipPath id="a"><path fill="#fff" d="M0 0h24v24H0z"/></clipPath></defs></svg>