<svg xmlns="http://www.w3.org/2000/svg" width="24" height="24" fill="none" viewBox="0 0 24 24"><g clip-path="url(#a)"><path fill="#333" d="M2.213 14.063a9.945 9.945 0 0 1 0-4.12c1.11.13 2.08-.237 2.396-1.001.317-.765-.108-1.71-.986-2.403a9.945 9.945 0 0 1 2.913-2.913c.692.877 1.638 1.303 2.403.986.765-.317 1.132-1.286 1-2.396a9.945 9.945 0 0 1 4.12 0c-.13 1.11.238 2.08 1.002 2.396.765.317 1.71-.108 2.403-.986a9.947 9.947 0 0 1 2.913 2.913c-.877.692-1.303 1.638-.986 2.403.317.765 1.286 1.132 2.396 1a9.945 9.945 0 0 1 0 4.12c-1.11-.13-2.08.238-2.396 1.002-.317.765.108 1.71.986 2.403a9.946 9.946 0 0 1-2.913 2.913c-.692-.877-1.638-1.303-2.403-.986-.765.317-1.132 1.286-1.001 2.396a9.945 9.945 0 0 1-4.12 0c.13-1.11-.237-2.08-1.001-2.396-.765-.317-1.71.108-2.403.986a9.944 9.944 0 0 1-2.913-2.913c.877-.692 1.303-1.638.986-2.403-.317-.765-1.286-1.132-2.396-1.001zM4 12.213c1.1.305 2.007 1.002 2.457 2.086.449 1.085.3 2.22-.262 3.212.096.102.195.2.297.297.993-.562 2.127-.71 3.212-.262 1.084.45 1.78 1.357 2.086 2.457.14.004.28.004.42 0 .305-1.1 1.002-2.007 2.086-2.457 1.085-.45 2.22-.3 3.212.262.102-.096.2-.195.297-.297-.562-.993-.71-2.127-.262-3.212.45-1.084 1.357-1.781 2.457-2.086.004-.14.004-.28 0-.42-1.1-.305-2.007-1.002-2.457-2.086-.45-1.085-.3-2.22.262-3.212a7.967 7.967 0 0 0-.297-.297c-.993.562-2.127.71-3.212.262-1.084-.45-1.781-1.357-2.086-2.457a7.947 7.947 0 0 0-.42 0c-.305 1.1-1.002 2.007-2.086 2.457-1.085.449-2.22.3-3.212-.262a6.932 6.932 0 0 0-.297.297c.562.993.71 2.127.262 3.212C6.007 10.79 5.1 11.487 4 11.793c-.004.14-.004.28 0 .42zm8 2.79a3 3 0 1 1 0-6 3 3 0 0 1 0 6zm0-2a1 1 0 1 0 0-2 1 1 0 0 0 0 2z"/></g><defs><clipPath id="a"><path fill="#fff" d="M0 0h24v24H0z"/></clipPath></defs></svg>