<svg xmlns="http://www.w3.org/2000/svg" width="24" height="24" fill="none" viewBox="0 0 24 24"><g clip-path="url(#a)"><path fill="#333" d="M13 16.265l1.964-1.134 1 1.732L14 17.997l1.964 1.134-1 1.732L13 19.729v2.268h-2v-2.268l-1.964 1.134-1-1.732L10 17.997l-1.964-1.134 1-1.732L11 16.265v-2.268h2v2.268zm4 1.732v-2h.5a3.5 3.5 0 1 0-2.5-5.95v-.05a6 6 0 1 0-8 5.659v2.089a8 8 0 1 1 9.458-10.65A5.5 5.5 0 1 1 17.5 17.997H17z"/></g><defs><clipPath id="a"><path fill="#fff" d="M0 0h24v24H0z"/></clipPath></defs></svg>